<svg width="896" height="885" viewBox="0 0 896 885" fill="none" xmlns="http://www.w3.org/2000/svg">
<path d="M448 25C681.909 25 871 212.211 871 442.5C871 672.789 681.909 860 448 860C214.092 860 25 672.789 25 442.5C25 212.211 214.092 25 448 25Z" fill="#D9D9D9" stroke="#008080" stroke-width="50"/>
<path d="M459.312 231.586C430.642 207.529 438.478 161.629 473.224 148.312L474.05 148.004L713.306 60.9217C748.752 48.0207 784.871 78.3285 778.321 115.476L734.108 366.219C727.609 403.076 683.942 419.239 655.036 395.807L654.356 395.247L459.312 231.586Z" fill="#D9D9D9" stroke="#008080" stroke-width="30"/>
<path d="M301.312 398.586C272.642 374.529 280.478 328.629 315.224 315.312L316.05 315.004L555.306 227.922C590.752 215.021 626.871 245.328 620.321 282.476L576.108 533.219C569.609 570.076 525.942 586.239 497.036 562.807L496.356 562.247L301.312 398.586Z" fill="#D9D9D9" stroke="#008080" stroke-width="30"/>
<path d="M140.737 574.01C112.067 549.954 119.903 504.054 154.649 490.737L155.475 490.428L394.731 403.346C430.176 390.445 466.296 420.753 459.746 457.9L415.533 708.643C409.034 745.5 365.366 761.663 336.461 738.231L335.781 737.671L140.737 574.01Z" fill="#D9D9D9" stroke="#008080" stroke-width="30"/>
</svg>
