<svg width="896" height="885" viewBox="0 0 896 885" fill="none" xmlns="http://www.w3.org/2000/svg">
<path d="M448 25C681.908 25 871 212.211 871 442.5C871 672.789 681.908 860 448 860C214.092 860 25 672.789 25 442.5C25 212.211 214.092 25 448 25Z" fill="#D9D9D9" stroke="#008080" stroke-width="50"/>
<path d="M459.312 231.586C430.417 207.34 438.604 160.905 474.05 148.004L713.306 60.9217C748.752 48.0207 784.871 78.3285 778.321 115.476L734.108 366.219C727.558 403.366 683.251 419.493 654.356 395.247L459.312 231.586Z" fill="#D9D9D9" stroke="#008080" stroke-width="30"/>
<path d="M301.312 398.586C272.417 374.34 280.604 327.905 316.05 315.004L555.306 227.922C590.752 215.021 626.871 245.329 620.321 282.476L576.108 533.219C569.558 570.366 525.251 586.493 496.356 562.247L301.312 398.586Z" fill="#D9D9D9" stroke="#008080" stroke-width="30"/>
<path d="M140.737 574.01C111.841 549.764 120.029 503.33 155.475 490.428L394.731 403.346C430.176 390.445 466.296 420.753 459.746 457.9L415.533 708.643C408.983 745.791 364.676 761.917 335.781 737.671L140.737 574.01Z" fill="#D9D9D9" stroke="#008080" stroke-width="30"/>
</svg>
